{
DisplayStrings = (
a,
A
);
date = "2013-05-07 17:01:52 +0000";
designer = "Shinji Pons";
designerURL = www.shinjipons.com;
familyName = "Modulo 22";
fontMaster = (
{
alignmentZones = (
"{128, 129}",
"{128, 129}",
"{128, 129}",
"{0, -2}",
"{0, -2}"
);
ascender = 128;
capHeight = 128;
customParameters = (
{
name = familyName;
value = "Modulo 22";
}
);
descender = 0;
guideLines = (
{
position = "{-25, 53}";
},
{
angle = 90;
position = "{83, 139}";
},
{
angle = 90;
position = "{61, 135}";
},
{
position = "{-18, 75}";
},
{
angle = 90;
position = "{30, 143}";
},
{
angle = 90;
position = "{114, 136}";
},
{
position = "{-22, 106}";
},
{
position = "{-20, 22}";
},
{
angle = 90;
position = "{8, -18}";
},
{
angle = 90;
position = "{136, -22}";
},
{
position = "{-5.5000000819563866, 64.000000953674316}";
},
{
angle = 90;
position = "{19.000000283122063, 143.3000021353364}";
},
{
position = "{-22.500000335276127, 11.000000163912773}";
},
{
angle = 90;
position = "{125.00000186264515, -20.200000301003456}";
},
{
position = "{149.10000222176313, 117.00000174343586}";
}
);
horizontalStems = (
22
);
id = "940E2F63-624A-4C3D-A909-721782B4CF41";
userData = {
GSCornerRadius = 13;
};
verticalStems = (
22
);
weightValue = 22;
widthValue = 128;
xHeight = 128;
}
);
glyphs = (
{
glyphname = A;
lastChange = "2013-05-30 00:03:26 +0200";
layers = (
{
background = {
paths = (
{
closed = 1;
nodes = (
"136 128 LINE",
"136 0 LINE",
"8 0 LINE",
"8 75 LINE",
"72 75 LINE",
"72 53 LINE",
"30 53 LINE",
"30 22 LINE",
"114 22 LINE",
"114 106 LINE",
"8 106 LINE",
"8 128 LINE"
);
}
);
};
layerId = "940E2F63-624A-4C3D-A909-721782B4CF41";
name = Regular;
paths = (
{
closed = 1;
nodes = (
"8 128 LINE",
"8 106 LINE",
"114 106 LINE",
"114 22 LINE",
"30 22 LINE",
"30 53 LINE",
"72 53 LINE SMOOTH",
"78.075 53 OFFCURVE",
"83 57.925 OFFCURVE",
"83 64 CURVE SMOOTH",
"83 70.075 OFFCURVE",
"78.075 75 OFFCURVE",
"72 75 CURVE SMOOTH",
"19 75 LINE",
"8 64 LINE",
"8 0 LINE",
"136 0 LINE",
"136 128 LINE"
);
},
{
closed = 1;
nodes = (
"25.0752 53 OFFCURVE",
"30 57.9248 OFFCURVE",
"30 64 CURVE SMOOTH",
"30 70.0752 OFFCURVE",
"25.0752 75 OFFCURVE",
"19 75 CURVE SMOOTH",
"12.9248 75 OFFCURVE",
"8 70.0752 OFFCURVE",
"8 64 CURVE SMOOTH",
"8 57.9248 OFFCURVE",
"12.9248 53 OFFCURVE",
"19 53 CURVE SMOOTH"
);
}
);
width = 144;
}
);
unicode = 0041;
},
{
glyphname = B;
lastChange = "2013-05-30 05:01:19 +0200";
layers = (
{
layerId = "940E2F63-624A-4C3D-A909-721782B4CF41";
name = Regular;
paths = (
{
closed = 1;
nodes = (
"8 128 LINE",
"8 0 LINE",
"30 0 LINE",
"30 106 LINE",
"114 106 LINE",
"114 75 LINE",
"61 75 LINE",
"61 53 LINE",
"114 53 LINE",
"114 22 LINE",
"61 22 LINE",
"61 0 LINE",
"136 0 LINE",
"136 128 LINE"
);
}
);
width = 144;
}
);
unicode = 0042;
},
{
glyphname = C;
lastChange = "2013-05-30 05:01:19 +0200";
layers = (
{
layerId = "940E2F63-624A-4C3D-A909-721782B4CF41";
name = Regular;
paths = (
{
closed = 1;
nodes = (
"8 0 LINE",
"8 128 LINE",
"136 128 LINE",
"136 106 LINE",
"30 106 LINE",
"30 22 LINE",
"136 22 LINE",
"136 0 LINE"
);
}
);
width = 144;
}
);
unicode = 0043;
},
{
glyphname = D;
lastChange = "2013-05-30 05:01:19 +0200";
layers = (
{
layerId = "940E2F63-624A-4C3D-A909-721782B4CF41";
name = Regular;
paths = (
{
closed = 1;
nodes = (
"136 128 LINE",
"8 128 LINE",
"8 106 LINE",
"114 106 LINE",
"114 22 LINE",
"30 22 LINE",
"30 75 LINE",
"8 75 LINE",
"8 0 LINE",
"136 0 LINE"
);
}
);
width = 144;
}
);
unicode = 0044;
},
{
glyphname = E;
lastChange = "2013-05-30 05:01:19 +0200";
layers = (
{
layerId = "940E2F63-624A-4C3D-A909-721782B4CF41";
name = Regular;
paths = (
{
closed = 1;
nodes = (
"136 53 LINE",
"136 128 LINE",
"61 128 LINE",
"61 106 LINE",
"114 106 LINE",
"114 75 LINE",
"30 75 LINE",
"30 128 LINE",
"8 128 LINE",
"8 0 LINE",
"136 0 LINE",
"136 22 LINE",
"30 22 LINE",
"30 53 LINE"
);
}
);
width = 144;
}
);
unicode = 0045;
},
{
glyphname = F;
lastChange = "2013-05-30 05:01:19 +0200";
layers = (
{
layerId = "940E2F63-624A-4C3D-A909-721782B4CF41";
name = Regular;
paths = (
{
closed = 1;
nodes = (
"30 0 LINE",
"30 53 LINE",
"136 53 LINE",
"136 75 LINE",
"30 75 LINE",
"30 106 LINE",
"136 106 LINE",
"136 128 LINE",
"8 128 LINE",
"8 0 LINE"
);
}
);
width = 144;
}
);
unicode = 0046;
},
{
glyphname = G;
lastChange = "2013-05-30 05:01:19 +0200";
layers = (
{
layerId = "940E2F63-624A-4C3D-A909-721782B4CF41";
name = Regular;
paths = (
{
closed = 1;
nodes = (
"136 106 LINE",
"30 106 LINE",
"30 22 LINE",
"114 22 LINE",
"114 53 LINE",
"61 53 LINE",
"61 75 LINE",
"136 75 LINE",
"136 0 LINE",
"8 0 LINE",
"8 128 LINE",
"136 128 LINE"
);
}
);
width = 144;
}
);
unicode = 0047;
},
{
glyphname = H;
lastChange = "2013-05-30 05:01:19 +0200";
layers = (
{
layerId = "940E2F63-624A-4C3D-A909-721782B4CF41";
name = Regular;
paths = (
{
closed = 1;
nodes = (
"114 128 LINE",
"114 75 LINE",
"30 75 LINE",
"30 128 LINE",
"8 128 LINE",
"8 0 LINE",
"30 0 LINE",
"30 53 LINE",
"114 53 LINE",
"114 0 LINE",
"136 0 LINE",
"136 128 LINE"
);
}
);
width = 144;
}
);
unicode = 0048;
},
{
glyphname = I;
lastChange = "2013-05-30 05:01:19 +0200";
layers = (
{
layerId = "940E2F63-624A-4C3D-A909-721782B4CF41";
name = Regular;
paths = (
{
closed = 1;
nodes = (
"136 106 LINE",
"136 128 LINE",
"8 128 LINE",
"8 106 LINE",
"61 106 LINE",
"61 22 LINE",
"8 22 LINE",
"8 0 LINE",
"136 0 LINE",
"136 22 LINE",
"83 22 LINE",
"83 106 LINE"
);
}
);
width = 144;
}
);
unicode = 0049;
},
{
glyphname = J;
lastChange = "2013-05-30 05:01:19 +0200";
layers = (
{
layerId = "940E2F63-624A-4C3D-A909-721782B4CF41";
name = Regular;
paths = (
{
closed = 1;
nodes = (
"136 128 LINE",
"114 128 LINE",
"114 22 LINE",
"30 22 LINE",
"30 53 LINE",
"8 53 LINE",
"8 0 LINE",
"136 0 LINE"
);
}
);
width = 144;
}
);
unicode = 004A;
},
{
glyphname = K;
lastChange = "2013-05-30 05:01:19 +0200";
layers = (
{
layerId = "940E2F63-624A-4C3D-A909-721782B4CF41";
name = Regular;
paths = (
{
closed = 1;
nodes = (
"136 106 LINE",
"136 128 LINE",
"61 128 LINE",
"61 75 LINE",
"30 75 LINE",
"30 128 LINE",
"8 128 LINE",
"8 0 LINE",
"30 0 LINE",
"30 53 LINE",
"114 53 LINE",
"114 0 LINE",
"136 0 LINE",
"136 75 LINE",
"83 75 LINE",
"83 106 LINE"
);
}
);
width = 144;
}
);
unicode = 004B;
},
{
glyphname = L;
lastChange = "2013-05-30 05:01:19 +0200";
layers = (
{
layerId = "940E2F63-624A-4C3D-A909-721782B4CF41";
name = Regular;
paths = (
{
closed = 1;
nodes = (
"30 22 LINE",
"136 22 LINE",
"136 0 LINE",
"8 0 LINE",
"8 128 LINE",
"30 128 LINE"
);
}
);
width = 144;
}
);
unicode = 004C;
},
{
glyphname = M;
lastChange = "2013-05-30 05:01:19 +0200";
layers = (
{
layerId = "940E2F63-624A-4C3D-A909-721782B4CF41";
name = Regular;
paths = (
{
closed = 1;
nodes = (
"8 128 LINE",
"8 0 LINE",
"30 0 LINE",
"30 106 LINE",
"61 106 LINE",
"61 0 LINE",
"83 0 LINE",
"83 106 LINE",
"114 106 LINE",
"114 0 LINE",
"136 0 LINE",
"136 128 LINE"
);
}
);
width = 144;
}
);
unicode = 004D;
},
{
glyphname = N;
lastChange = "2013-05-30 05:01:19 +0200";
layers = (
{
layerId = "940E2F63-624A-4C3D-A909-721782B4CF41";
name = Regular;
paths = (
{
closed = 1;
nodes = (
"114 128 LINE",
"114 22 LINE",
"83 22 LINE",
"83 128 LINE",
"8 128 LINE",
"8 0 LINE",
"30 0 LINE",
"30 106 LINE",
"61 106 LINE",
"61 0 LINE",
"136 0 LINE",
"136 128 LINE"
);
}
);
width = 144;
}
);
unicode = 004E;
},
{
glyphname = O;
lastChange = "2013-05-30 05:01:19 +0200";
layers = (
{
layerId = "940E2F63-624A-4C3D-A909-721782B4CF41";
name = Regular;
paths = (
{
closed = 1;
nodes = (
"8 128 LINE",
"8 0 LINE",
"136 0 LINE",
"136 128 LINE"
);
},
{
closed = 1;
nodes = (
"114 22 LINE",
"30 22 LINE",
"30 106 LINE",
"114 106 LINE"
);
}
);
width = 144;
}
);
unicode = 004F;
},
{
glyphname = P;
lastChange = "2013-05-30 05:01:19 +0200";
layers = (
{
layerId = "940E2F63-624A-4C3D-A909-721782B4CF41";
name = Regular;
paths = (
{
closed = 1;
nodes = (
"8 0 LINE",
"8 128 LINE",
"136 128 LINE",
"136 53 LINE",
"61 53 LINE",
"61 75 LINE",
"114 75 LINE",
"114 106 LINE",
"30 106 LINE",
"30 0 LINE"
);
}
);
width = 144;
}
);
unicode = 0050;
},
{
glyphname = Q;
lastChange = "2013-05-30 05:01:19 +0200";
layers = (
{
layerId = "940E2F63-624A-4C3D-A909-721782B4CF41";
name = Regular;
paths = (
{
closed = 1;
nodes = (
"8 128 LINE",
"8 0 LINE",
"136 0 LINE",
"136 128 LINE"
);
},
{
closed = 1;
nodes = (
"114 22 LINE",
"83 22 LINE",
"83 53 LINE",
"61 53 LINE",
"61 22 LINE",
"30 22 LINE",
"30 106 LINE",
"114 106 LINE"
);
}
);
width = 144;
}
);
unicode = 0051;
},
{
glyphname = R;
lastChange = "2013-05-30 05:01:19 +0200";
layers = (
{
layerId = "940E2F63-624A-4C3D-A909-721782B4CF41";
name = Regular;
paths = (
{
closed = 1;
nodes = (
"136 53 LINE",
"136 128 LINE",
"8 128 LINE",
"8 0 LINE",
"30 0 LINE",
"30 106 LINE",
"114 106 LINE",
"114 75 LINE",
"61 75 LINE",
"61 0 LINE",
"136 0 LINE",
"136 22 LINE",
"83 22 LINE",
"83 53 LINE"
);
}
);
width = 144;
}
);
unicode = 0052;
},
{
glyphname = S;
lastChange = "2013-05-30 05:01:19 +0200";
layers = (
{
layerId = "940E2F63-624A-4C3D-A909-721782B4CF41";
name = Regular;
paths = (
{
closed = 1;
nodes = (
"8 128 LINE",
"8 53 LINE",
"114 53 LINE",
"114 22 LINE",
"8 22 LINE",
"8 0 LINE",
"136 0 LINE",
"136 75 LINE",
"30 75 LINE",
"30 106 LINE",
"136 106 LINE",
"136 128 LINE"
);
}
);
width = 144;
}
);
unicode = 0053;
},
{
glyphname = T;
lastChange = "2013-05-30 05:01:19 +0200";
layers = (
{
layerId = "940E2F63-624A-4C3D-A909-721782B4CF41";
name = Regular;
paths = (
{
closed = 1;
nodes = (
"8 128 LINE",
"8 75 LINE",
"30 75 LINE",
"30 106 LINE",
"61 106 LINE",
"61 0 LINE",
"83 0 LINE",
"83 106 LINE",
"114 106 LINE",
"114 75 LINE",
"136 75 LINE",
"136 128 LINE"
);
}
);
width = 144;
}
);
unicode = 0054;
},
{
glyphname = U;
lastChange = "2013-05-30 05:01:19 +0200";
layers = (
{
layerId = "940E2F63-624A-4C3D-A909-721782B4CF41";
name = Regular;
paths = (
{
closed = 1;
nodes = (
"136 0 LINE",
"8 0 LINE",
"8 128 LINE",
"30 128 LINE",
"30 22 LINE",
"114 22 LINE",
"114 128 LINE",
"136 128 LINE"
);
}
);
width = 144;
}
);
unicode = 0055;
},
{
glyphname = V;
lastChange = "2013-05-30 05:01:19 +0200";
layers = (
{
layerId = "940E2F63-624A-4C3D-A909-721782B4CF41";
name = Regular;
paths = (
{
closed = 1;
nodes = (
"8 0 LINE",
"83 0 LINE",
"83 53 LINE",
"136 53 LINE",
"136 128 LINE",
"114 128 LINE",
"114 75 LINE",
"61 75 LINE",
"61 22 LINE",
"30 22 LINE",
"30 128 LINE",
"8 128 LINE"
);
}
);
width = 144;
}
);
unicode = 0056;
},
{
glyphname = W;
lastChange = "2013-05-30 05:01:19 +0200";
layers = (
{
layerId = "940E2F63-624A-4C3D-A909-721782B4CF41";
name = Regular;
paths = (
{
closed = 1;
nodes = (
"136 0 LINE",
"136 128 LINE",
"114 128 LINE",
"114 22 LINE",
"83 22 LINE",
"83 128 LINE",
"61 128 LINE",
"61 22 LINE",
"30 22 LINE",
"30 128 LINE",
"8 128 LINE",
"8 0 LINE"
);
}
);
width = 144;
}
);
unicode = 0057;
},
{
glyphname = X;
lastChange = "2013-05-30 05:01:19 +0200";
layers = (
{
layerId = "940E2F63-624A-4C3D-A909-721782B4CF41";
name = Regular;
paths = (
{
closed = 1;
nodes = (
"136 75 LINE",
"136 128 LINE",
"8 128 LINE",
"8 75 LINE",
"30 75 LINE",
"30 106 LINE",
"61 106 LINE",
"61 22 LINE",
"30 22 LINE",
"30 53 LINE",
"8 53 LINE",
"8 0 LINE",
"136 0 LINE",
"136 53 LINE",
"114 53 LINE",
"114 22 LINE",
"83 22 LINE",
"83 106 LINE",
"114 106 LINE",
"114 75 LINE"
);
}
);
width = 144;
}
);
unicode = 0058;
},
{
glyphname = Y;
lastChange = "2013-05-30 05:01:19 +0200";
layers = (
{
layerId = "940E2F63-624A-4C3D-A909-721782B4CF41";
name = Regular;
paths = (
{
closed = 1;
nodes = (
"114 128 LINE",
"114 75 LINE",
"30 75 LINE",
"30 128 LINE",
"8 128 LINE",
"8 53 LINE",
"114 53 LINE",
"114 22 LINE",
"8 22 LINE",
"8 0 LINE",
"136 0 LINE",
"136 128 LINE"
);
}
);
width = 144;
}
);
unicode = 0059;
},
{
glyphname = Z;
lastChange = "2013-05-30 05:01:19 +0200";
layers = (
{
layerId = "940E2F63-624A-4C3D-A909-721782B4CF41";
name = Regular;
paths = (
{
closed = 1;
nodes = (
"136 22 LINE",
"30 22 LINE",
"30 53 LINE",
"136 53 LINE",
"136 128 LINE",
"8 128 LINE",
"8 106 LINE",
"114 106 LINE",
"114 75 LINE",
"8 75 LINE",
"8 0 LINE",
"136 0 LINE"
);
}
);
width = 144;
}
);
unicode = 005A;
},
{
glyphname = a;
lastChange = "2013-05-30 00:00:32 +0200";
layers = (
{
layerId = "940E2F63-624A-4C3D-A909-721782B4CF41";
name = Regular;
paths = (
{
closed = 1;
nodes = (
"136 128 LINE",
"136 0 LINE",
"8 0 LINE",
"8 75 LINE",
"83 75 LINE",
"83 53 LINE",
"30 53 LINE",
"30 22 LINE",
"114 22 LINE",
"114 106 LINE",
"8 106 LINE",
"8 128 LINE"
);
}
);
width = 144;
}
);
unicode = 0061;
},
{
glyphname = b;
lastChange = "2013-05-30 05:02:38 +0200";
layers = (
{
layerId = "940E2F63-624A-4C3D-A909-721782B4CF41";
name = Regular;
paths = (
{
closed = 1;
nodes = (
"8 128 LINE",
"8 0 LINE",
"30 0 LINE",
"30 106 LINE",
"114 106 LINE",
"114 75 LINE",
"61 75 LINE",
"61 53 LINE",
"114 53 LINE",
"114 22 LINE",
"61 22 LINE",
"61 0 LINE",
"136 0 LINE",
"136 128 LINE"
);
}
);
width = 144;
}
);
unicode = 0062;
},
{
glyphname = c;
lastChange = "2013-05-30 05:02:38 +0200";
layers = (
{
layerId = "940E2F63-624A-4C3D-A909-721782B4CF41";
name = Regular;
paths = (
{
closed = 1;
nodes = (
"8 0 LINE",
"8 128 LINE",
"136 128 LINE",
"136 106 LINE",
"30 106 LINE",
"30 22 LINE",
"136 22 LINE",
"136 0 LINE"
);
}
);
width = 144;
}
);
unicode = 0063;
},
{
glyphname = d;
lastChange = "2013-05-30 05:02:38 +0200";
layers = (
{
layerId = "940E2F63-624A-4C3D-A909-721782B4CF41";
name = Regular;
paths = (
{
closed = 1;
nodes = (
"136 128 LINE",
"8 128 LINE",
"8 106 LINE",
"114 106 LINE",
"114 22 LINE",
"30 22 LINE",
"30 75 LINE",
"8 75 LINE",
"8 0 LINE",
"136 0 LINE"
);
}
);
width = 144;
}
);
unicode = 0064;
},
{
glyphname = e;
lastChange = "2013-05-30 05:02:38 +0200";
layers = (
{
layerId = "940E2F63-624A-4C3D-A909-721782B4CF41";
name = Regular;
paths = (
{
closed = 1;
nodes = (
"136 53 LINE",
"136 128 LINE",
"61 128 LINE",
"61 106 LINE",
"114 106 LINE",
"114 75 LINE",
"30 75 LINE",
"30 128 LINE",
"8 128 LINE",
"8 0 LINE",
"136 0 LINE",
"136 22 LINE",
"30 22 LINE",
"30 53 LINE"
);
}
);
width = 144;
}
);
unicode = 0065;
},
{
glyphname = f;
lastChange = "2013-05-30 05:02:38 +0200";
layers = (
{
layerId = "940E2F63-624A-4C3D-A909-721782B4CF41";
name = Regular;
paths = (
{
closed = 1;
nodes = (
"30 0 LINE",
"30 53 LINE",
"136 53 LINE",
"136 75 LINE",
"30 75 LINE",
"30 106 LINE",
"136 106 LINE",
"136 128 LINE",
"8 128 LINE",
"8 0 LINE"
);
}
);
width = 144;
}
);
unicode = 0066;
},
{
glyphname = g;
lastChange = "2013-05-30 05:02:38 +0200";
layers = (
{
layerId = "940E2F63-624A-4C3D-A909-721782B4CF41";
name = Regular;
paths = (
{
closed = 1;
nodes = (
"136 106 LINE",
"30 106 LINE",
"30 22 LINE",
"114 22 LINE",
"114 53 LINE",
"61 53 LINE",
"61 75 LINE",
"136 75 LINE",
"136 0 LINE",
"8 0 LINE",
"8 128 LINE",
"136 128 LINE"
);
}
);
width = 144;
}
);
unicode = 0067;
},
{
glyphname = h;
lastChange = "2013-05-30 05:02:38 +0200";
layers = (
{
layerId = "940E2F63-624A-4C3D-A909-721782B4CF41";
name = Regular;
paths = (
{
closed = 1;
nodes = (
"114 128 LINE",
"114 75 LINE",
"30 75 LINE",
"30 128 LINE",
"8 128 LINE",
"8 0 LINE",
"30 0 LINE",
"30 53 LINE",
"114 53 LINE",
"114 0 LINE",
"136 0 LINE",
"136 128 LINE"
);
}
);
width = 144;
}
);
unicode = 0068;
},
{
glyphname = i;
layers = (
{
layerId = "940E2F63-624A-4C3D-A909-721782B4CF41";
name = Regular;
paths = (
{
closed = 1;
nodes = (
"136 106 LINE",
"136 128 LINE",
"8 128 LINE",
"8 106 LINE",
"61 106 LINE",
"61 22 LINE",
"8 22 LINE",
"8 0 LINE",
"136 0 LINE",
"136 22 LINE",
"83 22 LINE",
"83 106 LINE"
);
}
);
width = 144;
}
);
unicode = 0069;
},
{
glyphname = j;
layers = (
{
layerId = "940E2F63-624A-4C3D-A909-721782B4CF41";
name = Regular;
paths = (
{
closed = 1;
nodes = (
"136 128 LINE",
"114 128 LINE",
"114 22 LINE",
"30 22 LINE",
"30 53 LINE",
"8 53 LINE",
"8 0 LINE",
"136 0 LINE"
);
}
);
width = 144;
}
);
unicode = 006A;
},
{
glyphname = k;
lastChange = "2013-05-30 05:02:38 +0200";
layers = (
{
layerId = "940E2F63-624A-4C3D-A909-721782B4CF41";
name = Regular;
paths = (
{
closed = 1;
nodes = (
"136 106 LINE",
"136 128 LINE",
"61 128 LINE",
"61 75 LINE",
"30 75 LINE",
"30 128 LINE",
"8 128 LINE",
"8 0 LINE",
"30 0 LINE",
"30 53 LINE",
"114 53 LINE",
"114 0 LINE",
"136 0 LINE",
"136 75 LINE",
"83 75 LINE",
"83 106 LINE"
);
}
);
width = 144;
}
);
unicode = 006B;
},
{
glyphname = l;
lastChange = "2013-05-30 05:02:38 +0200";
layers = (
{
layerId = "940E2F63-624A-4C3D-A909-721782B4CF41";
name = Regular;
paths = (
{
closed = 1;
nodes = (
"30 22 LINE",
"136 22 LINE",
"136 0 LINE",
"8 0 LINE",
"8 128 LINE",
"30 128 LINE"
);
}
);
width = 144;
}
);
unicode = 006C;
},
{
glyphname = m;
lastChange = "2013-05-30 05:02:38 +0200";
layers = (
{
layerId = "940E2F63-624A-4C3D-A909-721782B4CF41";
name = Regular;
paths = (
{
closed = 1;
nodes = (
"8 128 LINE",
"8 0 LINE",
"30 0 LINE",
"30 106 LINE",
"61 106 LINE",
"61 0 LINE",
"83 0 LINE",
"83 106 LINE",
"114 106 LINE",
"114 0 LINE",
"136 0 LINE",
"136 128 LINE"
);
}
);
width = 144;
}
);
unicode = 006D;
},
{
glyphname = n;
lastChange = "2013-05-30 05:02:38 +0200";
layers = (
{
layerId = "940E2F63-624A-4C3D-A909-721782B4CF41";
name = Regular;
paths = (
{
closed = 1;
nodes = (
"114 128 LINE",
"114 22 LINE",
"83 22 LINE",
"83 128 LINE",
"8 128 LINE",
"8 0 LINE",
"30 0 LINE",
"30 106 LINE",
"61 106 LINE",
"61 0 LINE",
"136 0 LINE",
"136 128 LINE"
);
}
);
width = 144;
}
);
unicode = 006E;
},
{
glyphname = o;
lastChange = "2013-05-30 05:02:38 +0200";
layers = (
{
layerId = "940E2F63-624A-4C3D-A909-721782B4CF41";
name = Regular;
paths = (
{
closed = 1;
nodes = (
"8 128 LINE",
"8 0 LINE",
"136 0 LINE",
"136 128 LINE"
);
},
{
closed = 1;
nodes = (
"114 22 LINE",
"30 22 LINE",
"30 106 LINE",
"114 106 LINE"
);
}
);
width = 144;
}
);
unicode = 006F;
},
{
glyphname = p;
lastChange = "2013-05-30 05:02:38 +0200";
layers = (
{
layerId = "940E2F63-624A-4C3D-A909-721782B4CF41";
name = Regular;
paths = (
{
closed = 1;
nodes = (
"8 0 LINE",
"8 128 LINE",
"136 128 LINE",
"136 53 LINE",
"61 53 LINE",
"61 75 LINE",
"114 75 LINE",
"114 106 LINE",
"30 106 LINE",
"30 0 LINE"
);
}
);
width = 144;
}
);
unicode = 0070;
},
{
glyphname = q;
lastChange = "2013-05-30 05:02:38 +0200";
layers = (
{
layerId = "940E2F63-624A-4C3D-A909-721782B4CF41";
name = Regular;
paths = (
{
closed = 1;
nodes = (
"8 128 LINE",
"8 0 LINE",
"136 0 LINE",
"136 128 LINE"
);
},
{
closed = 1;
nodes = (
"114 22 LINE",
"83 22 LINE",
"83 53 LINE",
"61 53 LINE",
"61 22 LINE",
"30 22 LINE",
"30 106 LINE",
"114 106 LINE"
);
}
);
width = 144;
}
);
unicode = 0071;
},
{
glyphname = r;
lastChange = "2013-05-30 05:02:38 +0200";
layers = (
{
layerId = "940E2F63-624A-4C3D-A909-721782B4CF41";
name = Regular;
paths = (
{
closed = 1;
nodes = (
"136 53 LINE",
"136 128 LINE",
"8 128 LINE",
"8 0 LINE",
"30 0 LINE",
"30 106 LINE",
"114 106 LINE",
"114 75 LINE",
"61 75 LINE",
"61 0 LINE",
"136 0 LINE",
"136 22 LINE",
"83 22 LINE",
"83 53 LINE"
);
}
);
width = 144;
}
);
unicode = 0072;
},
{
glyphname = s;
lastChange = "2013-05-30 05:02:38 +0200";
layers = (
{
layerId = "940E2F63-624A-4C3D-A909-721782B4CF41";
name = Regular;
paths = (
{
closed = 1;
nodes = (
"8 128 LINE",
"8 53 LINE",
"114 53 LINE",
"114 22 LINE",
"8 22 LINE",
"8 0 LINE",
"136 0 LINE",
"136 75 LINE",
"30 75 LINE",
"30 106 LINE",
"136 106 LINE",
"136 128 LINE"
);
}
);
width = 144;
}
);
unicode = 0073;
},
{
glyphname = t;
lastChange = "2013-05-30 05:02:38 +0200";
layers = (
{
layerId = "940E2F63-624A-4C3D-A909-721782B4CF41";
name = Regular;
paths = (
{
closed = 1;
nodes = (
"8 128 LINE",
"8 75 LINE",
"30 75 LINE",
"30 106 LINE",
"61 106 LINE",
"61 0 LINE",
"83 0 LINE",
"83 106 LINE",
"114 106 LINE",
"114 75 LINE",
"136 75 LINE",
"136 128 LINE"
);
}
);
width = 144;
}
);
unicode = 0074;
},
{
glyphname = u;
lastChange = "2013-05-30 05:02:38 +0200";
layers = (
{
layerId = "940E2F63-624A-4C3D-A909-721782B4CF41";
name = Regular;
paths = (
{
closed = 1;
nodes = (
"136 0 LINE",
"8 0 LINE",
"8 128 LINE",
"30 128 LINE",
"30 22 LINE",
"114 22 LINE",
"114 128 LINE",
"136 128 LINE"
);
}
);
width = 144;
}
);
unicode = 0075;
},
{
glyphname = v;
lastChange = "2013-05-30 05:02:38 +0200";
layers = (
{
layerId = "940E2F63-624A-4C3D-A909-721782B4CF41";
name = Regular;
paths = (
{
closed = 1;
nodes = (
"8 0 LINE",
"83 0 LINE",
"83 53 LINE",
"136 53 LINE",
"136 128 LINE",
"114 128 LINE",
"114 75 LINE",
"61 75 LINE",
"61 22 LINE",
"30 22 LINE",
"30 128 LINE",
"8 128 LINE"
);
}
);
width = 144;
}
);
unicode = 0076;
},
{
glyphname = w;
lastChange = "2013-05-30 05:02:38 +0200";
layers = (
{
layerId = "940E2F63-624A-4C3D-A909-721782B4CF41";
name = Regular;
paths = (
{
closed = 1;
nodes = (
"136 0 LINE",
"136 128 LINE",
"114 128 LINE",
"114 22 LINE",
"83 22 LINE",
"83 128 LINE",
"61 128 LINE",
"61 22 LINE",
"30 22 LINE",
"30 128 LINE",
"8 128 LINE",
"8 0 LINE"
);
}
);
width = 144;
}
);
unicode = 0077;
},
{
glyphname = x;
lastChange = "2013-05-30 05:02:38 +0200";
layers = (
{
layerId = "940E2F63-624A-4C3D-A909-721782B4CF41";
name = Regular;
paths = (
{
closed = 1;
nodes = (
"136 75 LINE",
"136 128 LINE",
"8 128 LINE",
"8 75 LINE",
"30 75 LINE",
"30 106 LINE",
"61 106 LINE",
"61 22 LINE",
"30 22 LINE",
"30 53 LINE",
"8 53 LINE",
"8 0 LINE",
"136 0 LINE",
"136 53 LINE",
"114 53 LINE",
"114 22 LINE",
"83 22 LINE",
"83 106 LINE",
"114 106 LINE",
"114 75 LINE"
);
}
);
width = 144;
}
);
unicode = 0078;
},
{
glyphname = y;
lastChange = "2013-05-30 05:02:38 +0200";
layers = (
{
layerId = "940E2F63-624A-4C3D-A909-721782B4CF41";
name = Regular;
paths = (
{
closed = 1;
nodes = (
"114 128 LINE",
"114 75 LINE",
"30 75 LINE",
"30 128 LINE",
"8 128 LINE",
"8 53 LINE",
"114 53 LINE",
"114 22 LINE",
"8 22 LINE",
"8 0 LINE",
"136 0 LINE",
"136 128 LINE"
);
}
);
width = 144;
}
);
unicode = 0079;
},
{
glyphname = z;
lastChange = "2013-05-30 05:02:38 +0200";
layers = (
{
layerId = "940E2F63-624A-4C3D-A909-721782B4CF41";
name = Regular;
paths = (
{
closed = 1;
nodes = (
"136 22 LINE",
"30 22 LINE",
"30 53 LINE",
"136 53 LINE",
"136 128 LINE",
"8 128 LINE",
"8 106 LINE",
"114 106 LINE",
"114 75 LINE",
"8 75 LINE",
"8 0 LINE",
"136 0 LINE"
);
}
);
width = 144;
}
);
unicode = 007A;
},
{
glyphname = zero;
lastChange = "2013-05-30 04:45:42 +0200";
layers = (
{
layerId = "940E2F63-624A-4C3D-A909-721782B4CF41";
name = Regular;
paths = (
{
closed = 1;
nodes = (
"8 128 LINE",
"8 0 LINE",
"136 0 LINE",
"136 128 LINE"
);
},
{
closed = 1;
nodes = (
"114 22 LINE",
"30 22 LINE",
"30 106 LINE",
"114 106 LINE"
);
},
{
closed = 1;
nodes = (
"61 53 LINE",
"83 53 LINE",
"83 75 LINE",
"61 75 LINE"
);
}
);
width = 144;
}
);
unicode = 0030;
},
{
glyphname = one;
lastChange = "2013-05-30 04:45:47 +0200";
layers = (
{
layerId = "940E2F63-624A-4C3D-A909-721782B4CF41";
name = Regular;
paths = (
{
closed = 1;
nodes = (
"83 22 LINE",
"83 128 LINE",
"8 128 LINE",
"8 106 LINE",
"61 106 LINE",
"61 22 LINE",
"8 22 LINE",
"8 0 LINE",
"136 0 LINE",
"136 22 LINE"
);
}
);
width = 144;
}
);
unicode = 0031;
},
{
glyphname = two;
lastChange = "2013-05-30 04:45:53 +0200";
layers = (
{
layerId = "940E2F63-624A-4C3D-A909-721782B4CF41";
name = Regular;
paths = (
{
closed = 1;
nodes = (
"136 22 LINE",
"30 22 LINE",
"30 53 LINE",
"136 53 LINE",
"136 128 LINE",
"8 128 LINE",
"8 106 LINE",
"114 106 LINE",
"114 75 LINE",
"8 75 LINE",
"8 0 LINE",
"136 0 LINE"
);
}
);
width = 144;
}
);
unicode = 0032;
},
{
glyphname = three;
lastChange = "2013-05-30 04:46:46 +0200";
layers = (
{
layerId = "940E2F63-624A-4C3D-A909-721782B4CF41";
name = Regular;
paths = (
{
closed = 1;
nodes = (
"136 128 LINE",
"8 128 LINE",
"8 106 LINE",
"114 106 LINE",
"114 75 LINE",
"8 75 LINE",
"8 53 LINE",
"114 53 LINE",
"114 22 LINE",
"8 22 LINE",
"8 0 LINE",
"136 0 LINE"
);
}
);
width = 144;
}
);
unicode = 0033;
},
{
glyphname = four;
lastChange = "2013-05-30 04:46:52 +0200";
layers = (
{
layerId = "940E2F63-624A-4C3D-A909-721782B4CF41";
name = Regular;
paths = (
{
closed = 1;
nodes = (
"114 128 LINE",
"114 75 LINE",
"30 75 LINE",
"30 128 LINE",
"8 128 LINE",
"8 53 LINE",
"114 53 LINE",
"114 0 LINE",
"136 0 LINE",
"136 128 LINE"
);
}
);
width = 144;
}
);
unicode = 0034;
},
{
glyphname = five;
lastChange = "2013-05-30 04:47:00 +0200";
layers = (
{
layerId = "940E2F63-624A-4C3D-A909-721782B4CF41";
name = Regular;
paths = (
{
closed = 1;
nodes = (
"8 128 LINE",
"8 53 LINE",
"114 53 LINE",
"114 22 LINE",
"8 22 LINE",
"8 0 LINE",
"136 0 LINE",
"136 75 LINE",
"30 75 LINE",
"30 106 LINE",
"136 106 LINE",
"136 128 LINE"
);
}
);
width = 144;
}
);
unicode = 0035;
},
{
glyphname = six;
lastChange = "2013-05-30 04:47:06 +0200";
layers = (
{
layerId = "940E2F63-624A-4C3D-A909-721782B4CF41";
name = Regular;
paths = (
{
closed = 1;
nodes = (
"136 106 LINE",
"30 106 LINE",
"30 22 LINE",
"114 22 LINE",
"114 53 LINE",
"61 53 LINE",
"61 75 LINE",
"136 75 LINE",
"136 0 LINE",
"8 0 LINE",
"8 128 LINE",
"136 128 LINE"
);
}
);
width = 144;
}
);
unicode = 0036;
},
{
glyphname = seven;
lastChange = "2013-05-30 04:47:10 +0200";
layers = (
{
layerId = "940E2F63-624A-4C3D-A909-721782B4CF41";
name = Regular;
paths = (
{
closed = 1;
nodes = (
"8 128 LINE",
"8 106 LINE",
"114 106 LINE",
"114 75 LINE",
"61 75 LINE",
"61 0 LINE",
"83 0 LINE",
"83 53 LINE",
"136 53 LINE",
"136 128 LINE"
);
}
);
width = 144;
}
);
unicode = 0037;
},
{
glyphname = eight;
lastChange = "2013-05-30 04:47:17 +0200";
layers = (
{
layerId = "940E2F63-624A-4C3D-A909-721782B4CF41";
name = Regular;
paths = (
{
closed = 1;
nodes = (
"8 128 LINE",
"8 0 LINE",
"136 0 LINE",
"136 128 LINE"
);
},
{
closed = 1;
nodes = (
"114 75 LINE",
"83 75 LINE",
"83 53 LINE",
"114 53 LINE",
"114 22 LINE",
"30 22 LINE",
"30 53 LINE",
"61 53 LINE",
"61 75 LINE",
"30 75 LINE",
"30 106 LINE",
"114 106 LINE"
);
}
);
width = 144;
}
);
unicode = 0038;
},
{
glyphname = nine;
lastChange = "2013-05-30 04:47:22 +0200";
layers = (
{
layerId = "940E2F63-624A-4C3D-A909-721782B4CF41";
name = Regular;
paths = (
{
closed = 1;
nodes = (
"8 22 LINE",
"114 22 LINE",
"114 106 LINE",
"30 106 LINE",
"30 75 LINE",
"83 75 LINE",
"83 53 LINE",
"8 53 LINE",
"8 128 LINE",
"136 128 LINE",
"136 0 LINE",
"8 0 LINE"
);
}
);
width = 144;
}
);
unicode = 0039;
},
{
glyphname = asterisk;
lastChange = "2013-05-30 04:47:28 +0200";
layers = (
{
layerId = "940E2F63-624A-4C3D-A909-721782B4CF41";
name = Regular;
paths = (
{
closed = 1;
nodes = (
"30 128 LINE",
"8 128 LINE",
"8 106 LINE",
"30 106 LINE"
);
},
{
closed = 1;
nodes = (
"83 128 LINE",
"61 128 LINE",
"61 75 LINE",
"8 75 LINE",
"8 53 LINE",
"61 53 LINE",
"61 0 LINE",
"83 0 LINE",
"83 53 LINE",
"136 53 LINE",
"136 75 LINE",
"83 75 LINE"
);
},
{
closed = 1;
nodes = (
"114 128 LINE",
"114 106 LINE",
"136 106 LINE",
"136 128 LINE"
);
},
{
closed = 1;
nodes = (
"8 0 LINE",
"30 0 LINE",
"30 22 LINE",
"8 22 LINE"
);
},
{
closed = 1;
nodes = (
"114 0 LINE",
"136 0 LINE",
"136 22 LINE",
"114 22 LINE"
);
}
);
width = 144;
}
);
unicode = 002A;
},
{
glyphname = backslash;
lastChange = "2013-05-30 04:47:33 +0200";
layers = (
{
layerId = "940E2F63-624A-4C3D-A909-721782B4CF41";
name = Regular;
paths = (
{
closed = 1;
nodes = (
"8 0 LINE",
"30 0 LINE",
"30 128 LINE",
"8 128 LINE"
);
},
{
closed = 1;
nodes = (
"61 0 LINE",
"83 0 LINE",
"83 128 LINE",
"61 128 LINE"
);
},
{
closed = 1;
nodes = (
"114 0 LINE",
"136 0 LINE",
"136 128 LINE",
"114 128 LINE"
);
}
);
width = 144;
}
);
unicode = 005C;
},
{
glyphname = bullet;
lastChange = "2013-05-30 04:47:39 +0200";
layers = (
{
layerId = "940E2F63-624A-4C3D-A909-721782B4CF41";
name = Regular;
paths = (
{
closed = 1;
nodes = (
"8 128 LINE",
"8 106 LINE",
"136 106 LINE",
"136 128 LINE"
);
},
{
closed = 1;
nodes = (
"8 75 LINE",
"8 53 LINE",
"136 53 LINE",
"136 75 LINE"
);
},
{
closed = 1;
nodes = (
"8 22 LINE",
"8 0 LINE",
"136 0 LINE",
"136 22 LINE"
);
}
);
width = 144;
}
);
unicode = 2022;
},
{
glyphname = colon;
lastChange = "2013-05-30 04:47:46 +0200";
layers = (
{
layerId = "940E2F63-624A-4C3D-A909-721782B4CF41";
name = Regular;
paths = (
{
closed = 1;
nodes = (
"8 128 LINE",
"8 106 LINE",
"136 106 LINE",
"136 128 LINE"
);
},
{
closed = 1;
nodes = (
"8 75 LINE",
"8 53 LINE",
"136 53 LINE",
"136 75 LINE"
);
},
{
closed = 1;
nodes = (
"8 22 LINE",
"8 0 LINE",
"136 0 LINE",
"136 22 LINE"
);
}
);
width = 144;
}
);
unicode = 003A;
},
{
glyphname = comma;
lastChange = "2013-05-09 11:48:47 +0200";
layers = (
{
layerId = "940E2F63-624A-4C3D-A909-721782B4CF41";
name = Regular;
paths = (
{
closed = 1;
nodes = (
"8 0 LINE",
"136 0 LINE",
"136 128 LINE",
"8 128 LINE"
);
}
);
width = 144;
}
);
unicode = 002C;
},
{
glyphname = ellipsis;
lastChange = "2013-05-09 11:48:51 +0200";
layers = (
{
layerId = "940E2F63-624A-4C3D-A909-721782B4CF41";
name = Regular;
paths = (
{
closed = 1;
nodes = (
"30 22 LINE",
"8 22 LINE",
"8 0 LINE",
"30 0 LINE"
);
},
{
closed = 1;
nodes = (
"136 22 LINE",
"114 22 LINE",
"114 0 LINE",
"136 0 LINE"
);
},
{
closed = 1;
nodes = (
"83 22 LINE",
"61 22 LINE",
"61 0 LINE",
"83 0 LINE"
);
},
{
closed = 1;
nodes = (
"8 128 LINE",
"8 106 LINE",
"136 106 LINE",
"136 128 LINE"
);
},
{
closed = 1;
nodes = (
"8 75 LINE",
"8 53 LINE",
"136 53 LINE",
"136 75 LINE"
);
}
);
width = 144;
}
);
unicode = 2026;
},
{
glyphname = exclam;
lastChange = "2013-05-09 11:48:55 +0200";
layers = (
{
layerId = "940E2F63-624A-4C3D-A909-721782B4CF41";
name = Regular;
paths = (
{
closed = 1;
nodes = (
"136 128 LINE",
"114 128 LINE",
"114 53 LINE",
"136 53 LINE"
);
},
{
closed = 1;
nodes = (
"83 128 LINE",
"61 128 LINE",
"61 53 LINE",
"83 53 LINE"
);
},
{
closed = 1;
nodes = (
"30 128 LINE",
"8 128 LINE",
"8 53 LINE",
"30 53 LINE"
);
},
{
closed = 1;
nodes = (
"30 22 LINE",
"8 22 LINE",
"8 0 LINE",
"30 0 LINE"
);
},
{
closed = 1;
nodes = (
"136 22 LINE",
"114 22 LINE",
"114 0 LINE",
"136 0 LINE"
);
},
{
closed = 1;
nodes = (
"83 22 LINE",
"61 22 LINE",
"61 0 LINE",
"83 0 LINE"
);
}
);
width = 144;
}
);
unicode = 0021;
},
{
glyphname = exclamdown;
lastChange = "2013-05-09 11:48:59 +0200";
layers = (
{
layerId = "940E2F63-624A-4C3D-A909-721782B4CF41";
name = Regular;
paths = (
{
closed = 1;
nodes = (
"114 75 LINE",
"114 0 LINE",
"136 0 LINE",
"136 75 LINE"
);
},
{
closed = 1;
nodes = (
"61 75 LINE",
"61 0 LINE",
"83 0 LINE",
"83 75 LINE"
);
},
{
closed = 1;
nodes = (
"8 75 LINE",
"8 0 LINE",
"30 0 LINE",
"30 75 LINE"
);
},
{
closed = 1;
nodes = (
"8 128 LINE",
"8 106 LINE",
"30 106 LINE",
"30 128 LINE"
);
},
{
closed = 1;
nodes = (
"114 128 LINE",
"114 106 LINE",
"136 106 LINE",
"136 128 LINE"
);
},
{
closed = 1;
nodes = (
"61 128 LINE",
"61 106 LINE",
"83 106 LINE",
"83 128 LINE"
);
}
);
width = 144;
}
);
unicode = 00A1;
},
{
glyphname = numbersign;
lastChange = "2013-05-09 23:25:38 +0200";
layers = (
{
layerId = "940E2F63-624A-4C3D-A909-721782B4CF41";
name = Regular;
paths = (
{
closed = 1;
nodes = (
"8 128 LINE",
"8 0 LINE",
"136 0 LINE",
"136 128 LINE"
);
},
{
closed = 1;
nodes = (
"30 106 LINE",
"61 106 LINE",
"61 75 LINE",
"30 75 LINE"
);
},
{
closed = 1;
nodes = (
"114 75 LINE",
"83 75 LINE",
"83 106 LINE",
"114 106 LINE"
);
},
{
closed = 1;
nodes = (
"30 22 LINE",
"30 53 LINE",
"61 53 LINE",
"61 22 LINE"
);
},
{
closed = 1;
nodes = (
"114 22 LINE",
"83 22 LINE",
"83 53 LINE",
"114 53 LINE"
);
}
);
width = 144;
}
);
unicode = 0023;
},
{
glyphname = period;
lastChange = "2013-05-09 11:49:07 +0200";
layers = (
{
layerId = "940E2F63-624A-4C3D-A909-721782B4CF41";
name = Regular;
paths = (
{
closed = 1;
nodes = (
"8 0 LINE",
"136 0 LINE",
"136 128 LINE",
"8 128 LINE"
);
}
);
width = 144;
}
);
unicode = 002E;
},
{
glyphname = periodcentered;
lastChange = "2013-05-09 11:49:11 +0200";
layers = (
{
layerId = "940E2F63-624A-4C3D-A909-721782B4CF41";
name = Regular;
paths = (
{
closed = 1;
nodes = (
"8 0 LINE",
"136 0 LINE",
"136 128 LINE",
"8 128 LINE"
);
}
);
width = 144;
}
);
unicode = 00B7;
},
{
glyphname = question;
lastChange = "2013-05-09 11:49:14 +0200";
layers = (
{
layerId = "940E2F63-624A-4C3D-A909-721782B4CF41";
name = Regular;
paths = (
{
closed = 1;
nodes = (
"8 128 LINE",
"8 106 LINE",
"114 106 LINE",
"114 75 LINE",
"61 75 LINE",
"61 53 LINE",
"136 53 LINE",
"136 128 LINE"
);
},
{
closed = 1;
nodes = (
"83 22 LINE",
"61 22 LINE",
"61 0 LINE",
"83 0 LINE"
);
}
);
width = 144;
}
);
unicode = 003F;
},
{
glyphname = questiondown;
lastChange = "2013-05-09 11:49:18 +0200";
layers = (
{
layerId = "940E2F63-624A-4C3D-A909-721782B4CF41";
name = Regular;
paths = (
{
closed = 1;
nodes = (
"136 75 LINE",
"61 75 LINE",
"61 53 LINE",
"114 53 LINE",
"114 22 LINE",
"8 22 LINE",
"8 0 LINE",
"136 0 LINE"
);
},
{
closed = 1;
nodes = (
"61 128 LINE",
"61 106 LINE",
"83 106 LINE",
"83 128 LINE"
);
}
);
width = 144;
}
);
unicode = 00BF;
},
{
glyphname = quotedbl;
lastChange = "2013-05-30 04:47:59 +0200";
layers = (
{
layerId = "940E2F63-624A-4C3D-A909-721782B4CF41";
name = Regular;
paths = (
{
closed = 1;
nodes = (
"8 0 LINE",
"30 0 LINE",
"30 128 LINE",
"8 128 LINE"
);
},
{
closed = 1;
nodes = (
"61 0 LINE",
"83 0 LINE",
"83 128 LINE",
"61 128 LINE"
);
},
{
closed = 1;
nodes = (
"114 0 LINE",
"136 0 LINE",
"136 128 LINE",
"114 128 LINE"
);
}
);
width = 144;
}
);
unicode = 0022;
},
{
glyphname = quotesingle;
lastChange = "2013-05-30 04:48:05 +0200";
layers = (
{
layerId = "940E2F63-624A-4C3D-A909-721782B4CF41";
name = Regular;
paths = (
{
closed = 1;
nodes = (
"8 0 LINE",
"30 0 LINE",
"30 128 LINE",
"8 128 LINE"
);
},
{
closed = 1;
nodes = (
"61 0 LINE",
"83 0 LINE",
"83 128 LINE",
"61 128 LINE"
);
},
{
closed = 1;
nodes = (
"114 0 LINE",
"136 0 LINE",
"136 128 LINE",
"114 128 LINE"
);
}
);
width = 144;
}
);
unicode = 0027;
},
{
glyphname = semicolon;
lastChange = "2013-05-30 04:48:09 +0200";
layers = (
{
layerId = "940E2F63-624A-4C3D-A909-721782B4CF41";
name = Regular;
paths = (
{
closed = 1;
nodes = (
"8 0 LINE",
"30 0 LINE",
"30 128 LINE",
"8 128 LINE"
);
},
{
closed = 1;
nodes = (
"61 0 LINE",
"83 0 LINE",
"83 128 LINE",
"61 128 LINE"
);
},
{
closed = 1;
nodes = (
"114 0 LINE",
"136 0 LINE",
"136 128 LINE",
"114 128 LINE"
);
}
);
width = 144;
}
);
unicode = 003B;
},
{
glyphname = slash;
lastChange = "2013-05-30 04:48:14 +0200";
layers = (
{
layerId = "940E2F63-624A-4C3D-A909-721782B4CF41";
name = Regular;
paths = (
{
closed = 1;
nodes = (
"8 0 LINE",
"30 0 LINE",
"30 128 LINE",
"8 128 LINE"
);
},
{
closed = 1;
nodes = (
"61 0 LINE",
"83 0 LINE",
"83 128 LINE",
"61 128 LINE"
);
},
{
closed = 1;
nodes = (
"114 0 LINE",
"136 0 LINE",
"136 128 LINE",
"114 128 LINE"
);
}
);
width = 144;
}
);
unicode = 002F;
},
{
glyphname = underscore;
lastChange = "2013-05-30 04:48:26 +0200";
layers = (
{
layerId = "940E2F63-624A-4C3D-A909-721782B4CF41";
name = Regular;
paths = (
{
closed = 1;
nodes = (
"8 0 LINE",
"30 0 LINE",
"30 128 LINE",
"8 128 LINE"
);
},
{
closed = 1;
nodes = (
"61 0 LINE",
"83 0 LINE",
"83 128 LINE",
"61 128 LINE"
);
},
{
closed = 1;
nodes = (
"114 0 LINE",
"136 0 LINE",
"136 128 LINE",
"114 128 LINE"
);
}
);
width = 144;
}
);
unicode = 005F;
},
{
glyphname = braceleft;
lastChange = "2013-05-09 11:49:46 +0200";
layers = (
{
layerId = "940E2F63-624A-4C3D-A909-721782B4CF41";
name = Regular;
paths = (
{
closed = 1;
nodes = (
"136 106 LINE",
"136 128 LINE",
"61 128 LINE",
"61 75 LINE",
"8 75 LINE",
"8 53 LINE",
"61 53 LINE",
"61 0 LINE",
"136 0 LINE",
"136 22 LINE",
"83 22 LINE",
"83 106 LINE"
);
},
{
closed = 1;
nodes = (
"136 106 LINE",
"136 128 LINE",
"61 128 LINE",
"61 75 LINE",
"8 75 LINE",
"8 53 LINE",
"61 53 LINE",
"61 0 LINE",
"136 0 LINE",
"136 22 LINE",
"83 22 LINE",
"83 106 LINE"
);
}
);
width = 144;
}
);
unicode = 007B;
},
{
glyphname = braceright;
lastChange = "2013-05-09 11:49:50 +0200";
layers = (
{
layerId = "940E2F63-624A-4C3D-A909-721782B4CF41";
name = Regular;
paths = (
{
closed = 1;
nodes = (
"61 22 LINE",
"8 22 LINE",
"8 0 LINE",
"83 0 LINE",
"83 53 LINE",
"136 53 LINE",
"136 75 LINE",
"83 75 LINE",
"83 128 LINE",
"8 128 LINE",
"8 106 LINE",
"61 106 LINE"
);
}
);
width = 144;
}
);
unicode = 007D;
},
{
glyphname = bracketleft;
lastChange = "2013-05-09 11:51:21 +0200";
layers = (
{
layerId = "940E2F63-624A-4C3D-A909-721782B4CF41";
name = Regular;
paths = (
{
closed = 1;
nodes = (
"136 106 LINE",
"136 128 LINE",
"61 128 LINE",
"61 75 LINE",
"8 75 LINE",
"8 53 LINE",
"61 53 LINE",
"61 0 LINE",
"136 0 LINE",
"136 22 LINE",
"83 22 LINE",
"83 106 LINE"
);
}
);
width = 144;
}
);
unicode = 005B;
},
{
glyphname = bracketright;
lastChange = "2013-05-09 11:51:16 +0200";
layers = (
{
layerId = "940E2F63-624A-4C3D-A909-721782B4CF41";
name = Regular;
paths = (
{
closed = 1;
nodes = (
"61 22 LINE",
"8 22 LINE",
"8 0 LINE",
"83 0 LINE",
"83 53 LINE",
"136 53 LINE",
"136 75 LINE",
"83 75 LINE",
"83 128 LINE",
"8 128 LINE",
"8 106 LINE",
"61 106 LINE"
);
}
);
width = 144;
}
);
unicode = 005D;
},
{
glyphname = parenleft;
lastChange = "2013-05-09 11:51:12 +0200";
layers = (
{
layerId = "940E2F63-624A-4C3D-A909-721782B4CF41";
name = Regular;
paths = (
{
closed = 1;
nodes = (
"136 106 LINE",
"136 128 LINE",
"61 128 LINE",
"61 75 LINE",
"8 75 LINE",
"8 53 LINE",
"61 53 LINE",
"61 0 LINE",
"136 0 LINE",
"136 22 LINE",
"83 22 LINE",
"83 106 LINE"
);
}
);
width = 144;
}
);
unicode = 0028;
},
{
glyphname = parenright;
lastChange = "2013-05-09 11:51:09 +0200";
layers = (
{
layerId = "940E2F63-624A-4C3D-A909-721782B4CF41";
name = Regular;
paths = (
{
closed = 1;
nodes = (
"61 22 LINE",
"8 22 LINE",
"8 0 LINE",
"83 0 LINE",
"83 53 LINE",
"136 53 LINE",
"136 75 LINE",
"83 75 LINE",
"83 128 LINE",
"8 128 LINE",
"8 106 LINE",
"61 106 LINE"
);
}
);
width = 144;
}
);
unicode = 0029;
},
{
glyphname = emdash;
lastChange = "2013-05-30 04:48:46 +0200";
layers = (
{
layerId = "940E2F63-624A-4C3D-A909-721782B4CF41";
name = Regular;
paths = (
{
closed = 1;
nodes = (
"8 128 LINE",
"8 106 LINE",
"136 106 LINE",
"136 128 LINE"
);
},
{
closed = 1;
nodes = (
"8 75 LINE",
"8 53 LINE",
"136 53 LINE",
"136 75 LINE"
);
},
{
closed = 1;
nodes = (
"8 22 LINE",
"8 0 LINE",
"136 0 LINE",
"136 22 LINE"
);
}
);
width = 144;
}
);
unicode = 2014;
},
{
glyphname = endash;
lastChange = "2013-05-30 04:48:51 +0200";
layers = (
{
layerId = "940E2F63-624A-4C3D-A909-721782B4CF41";
name = Regular;
paths = (
{
closed = 1;
nodes = (
"8 128 LINE",
"8 106 LINE",
"136 106 LINE",
"136 128 LINE"
);
},
{
closed = 1;
nodes = (
"8 75 LINE",
"8 53 LINE",
"136 53 LINE",
"136 75 LINE"
);
},
{
closed = 1;
nodes = (
"8 22 LINE",
"8 0 LINE",
"136 0 LINE",
"136 22 LINE"
);
}
);
width = 144;
}
);
unicode = 2013;
},
{
glyphname = hyphen;
lastChange = "2013-05-30 04:48:55 +0200";
layers = (
{
layerId = "940E2F63-624A-4C3D-A909-721782B4CF41";
name = Regular;
paths = (
{
closed = 1;
nodes = (
"8 128 LINE",
"8 106 LINE",
"136 106 LINE",
"136 128 LINE"
);
},
{
closed = 1;
nodes = (
"8 75 LINE",
"8 53 LINE",
"136 53 LINE",
"136 75 LINE"
);
},
{
closed = 1;
nodes = (
"8 22 LINE",
"8 0 LINE",
"136 0 LINE",
"136 22 LINE"
);
}
);
width = 144;
}
);
unicode = 002D;
},
{
glyphname = guillemotleft;
lastChange = "2013-05-30 04:49:03 +0200";
layers = (
{
layerId = "940E2F63-624A-4C3D-A909-721782B4CF41";
name = Regular;
paths = (
{
closed = 1;
nodes = (
"8 0 LINE",
"30 0 LINE",
"30 128 LINE",
"8 128 LINE"
);
},
{
closed = 1;
nodes = (
"61 0 LINE",
"83 0 LINE",
"83 128 LINE",
"61 128 LINE"
);
},
{
closed = 1;
nodes = (
"114 0 LINE",
"136 0 LINE",
"136 128 LINE",
"114 128 LINE"
);
}
);
width = 144;
}
);
unicode = 00AB;
},
{
glyphname = guillemotright;
lastChange = "2013-05-30 04:49:07 +0200";
layers = (
{
layerId = "940E2F63-624A-4C3D-A909-721782B4CF41";
name = Regular;
paths = (
{
closed = 1;
nodes = (
"8 0 LINE",
"30 0 LINE",
"30 128 LINE",
"8 128 LINE"
);
},
{
closed = 1;
nodes = (
"61 0 LINE",
"83 0 LINE",
"83 128 LINE",
"61 128 LINE"
);
},
{
closed = 1;
nodes = (
"114 0 LINE",
"136 0 LINE",
"136 128 LINE",
"114 128 LINE"
);
}
);
width = 144;
}
);
unicode = 00BB;
},
{
glyphname = guilsinglleft;
lastChange = "2013-05-30 04:49:11 +0200";
layers = (
{
layerId = "940E2F63-624A-4C3D-A909-721782B4CF41";
name = Regular;
paths = (
{
closed = 1;
nodes = (
"8 0 LINE",
"30 0 LINE",
"30 128 LINE",
"8 128 LINE"
);
},
{
closed = 1;
nodes = (
"61 0 LINE",
"83 0 LINE",
"83 128 LINE",
"61 128 LINE"
);
},
{
closed = 1;
nodes = (
"114 0 LINE",
"136 0 LINE",
"136 128 LINE",
"114 128 LINE"
);
}
);
width = 144;
}
);
unicode = 2039;
},
{
glyphname = guilsinglright;
lastChange = "2013-05-30 04:49:16 +0200";
layers = (
{
layerId = "940E2F63-624A-4C3D-A909-721782B4CF41";
name = Regular;
paths = (
{
closed = 1;
nodes = (
"8 0 LINE",
"30 0 LINE",
"30 128 LINE",
"8 128 LINE"
);
},
{
closed = 1;
nodes = (
"61 0 LINE",
"83 0 LINE",
"83 128 LINE",
"61 128 LINE"
);
},
{
closed = 1;
nodes = (
"114 0 LINE",
"136 0 LINE",
"136 128 LINE",
"114 128 LINE"
);
}
);
width = 144;
}
);
unicode = 203A;
},
{
glyphname = quoteleft;
lastChange = "2013-05-30 04:49:27 +0200";
layers = (
{
layerId = "940E2F63-624A-4C3D-A909-721782B4CF41";
name = Regular;
paths = (
{
closed = 1;
nodes = (
"8 0 LINE",
"30 0 LINE",
"30 128 LINE",
"8 128 LINE"
);
},
{
closed = 1;
nodes = (
"61 0 LINE",
"83 0 LINE",
"83 128 LINE",
"61 128 LINE"
);
},
{
closed = 1;
nodes = (
"114 0 LINE",
"136 0 LINE",
"136 128 LINE",
"114 128 LINE"
);
}
);
width = 144;
}
);
unicode = 2018;
},
{
glyphname = quoteright;
lastChange = "2013-05-30 04:49:34 +0200";
layers = (
{
layerId = "940E2F63-624A-4C3D-A909-721782B4CF41";
name = Regular;
paths = (
{
closed = 1;
nodes = (
"8 0 LINE",
"30 0 LINE",
"30 128 LINE",
"8 128 LINE"
);
},
{
closed = 1;
nodes = (
"61 0 LINE",
"83 0 LINE",
"83 128 LINE",
"61 128 LINE"
);
},
{
closed = 1;
nodes = (
"114 0 LINE",
"136 0 LINE",
"136 128 LINE",
"114 128 LINE"
);
}
);
width = 144;
}
);
unicode = 2019;
},
{
glyphname = divide;
lastChange = "2013-05-09 11:52:02 +0200";
layers = (
{
layerId = "940E2F63-624A-4C3D-A909-721782B4CF41";
name = Regular;
paths = (
{
closed = 1;
nodes = (
"61 128 LINE",
"61 106 LINE",
"83 106 LINE",
"83 128 LINE"
);
},
{
closed = 1;
nodes = (
"8 75 LINE",
"8 53 LINE",
"136 53 LINE",
"136 75 LINE"
);
},
{
closed = 1;
nodes = (
"61 22 LINE",
"61 0 LINE",
"83 0 LINE",
"83 22 LINE"
);
}
);
width = 144;
}
);
unicode = 00F7;
},
{
glyphname = equal;
lastChange = "2013-05-30 04:49:46 +0200";
layers = (
{
layerId = "940E2F63-624A-4C3D-A909-721782B4CF41";
name = Regular;
paths = (
{
closed = 1;
nodes = (
"8 128 LINE",
"8 106 LINE",
"136 106 LINE",
"136 128 LINE"
);
},
{
closed = 1;
nodes = (
"8 75 LINE",
"8 53 LINE",
"136 53 LINE",
"136 75 LINE"
);
},
{
closed = 1;
nodes = (
"8 22 LINE",
"8 0 LINE",
"136 0 LINE",
"136 22 LINE"
);
}
);
width = 144;
}
);
unicode = 003D;
},
{
glyphname = minus;
lastChange = "2013-05-09 11:52:09 +0200";
layers = (
{
layerId = "940E2F63-624A-4C3D-A909-721782B4CF41";
name = Regular;
paths = (
{
closed = 1;
nodes = (
"8 75 LINE",
"8 53 LINE",
"136 53 LINE",
"136 75 LINE"
);
}
);
width = 144;
}
);
unicode = 2212;
},
{
glyphname = multiply;
lastChange = "2013-05-09 11:52:12 +0200";
layers = (
{
layerId = "940E2F63-624A-4C3D-A909-721782B4CF41";
name = Regular;
paths = (
{
closed = 1;
nodes = (
"136 75 LINE",
"136 128 LINE",
"8 128 LINE",
"8 75 LINE",
"30 75 LINE",
"30 106 LINE",
"61 106 LINE",
"61 22 LINE",
"30 22 LINE",
"30 53 LINE",
"8 53 LINE",
"8 0 LINE",
"136 0 LINE",
"136 53 LINE",
"114 53 LINE",
"114 22 LINE",
"83 22 LINE",
"83 106 LINE",
"114 106 LINE",
"114 75 LINE"
);
}
);
width = 144;
}
);
unicode = 00D7;
},
{
glyphname = plus;
lastChange = "2013-05-09 11:52:19 +0200";
layers = (
{
layerId = "940E2F63-624A-4C3D-A909-721782B4CF41";
name = Regular;
paths = (
{
closed = 1;
nodes = (
"136 75 LINE",
"83 75 LINE",
"83 128 LINE",
"61 128 LINE",
"61 75 LINE",
"8 75 LINE",
"8 53 LINE",
"61 53 LINE",
"61 0 LINE",
"83 0 LINE",
"83 53 LINE",
"136 53 LINE"
);
}
);
width = 144;
}
);
unicode = 002B;
},
{
glyphname = ampersand;
lastChange = "2013-05-09 11:52:22 +0200";
layers = (
{
layerId = "940E2F63-624A-4C3D-A909-721782B4CF41";
name = Regular;
paths = (
{
closed = 1;
nodes = (
"61 128 LINE",
"61 75 LINE",
"8 75 LINE",
"8 0 LINE",
"136 0 LINE",
"136 22 LINE",
"30 22 LINE",
"30 53 LINE",
"136 53 LINE",
"136 128 LINE"
);
},
{
closed = 1;
nodes = (
"114 75 LINE",
"83 75 LINE",
"83 106 LINE",
"114 106 LINE"
);
}
);
width = 144;
}
);
unicode = 0026;
},
{
glyphname = at;
lastChange = "2013-05-09 11:52:25 +0200";
layers = (
{
layerId = "940E2F63-624A-4C3D-A909-721782B4CF41";
name = Regular;
paths = (
{
closed = 1;
nodes = (
"136 128 LINE",
"136 0 LINE",
"8 0 LINE",
"8 75 LINE",
"83 75 LINE",
"83 53 LINE",
"30 53 LINE",
"30 22 LINE",
"114 22 LINE",
"114 106 LINE",
"8 106 LINE",
"8 128 LINE"
);
}
);
width = 144;
}
);
unicode = 0040;
},
{
glyphname = bar;
lastChange = "2013-05-30 04:49:54 +0200";
layers = (
{
layerId = "940E2F63-624A-4C3D-A909-721782B4CF41";
name = Regular;
paths = (
{
closed = 1;
nodes = (
"8 128 LINE",
"8 106 LINE",
"136 106 LINE",
"136 128 LINE"
);
},
{
closed = 1;
nodes = (
"8 75 LINE",
"8 53 LINE",
"136 53 LINE",
"136 75 LINE"
);
},
{
closed = 1;
nodes = (
"8 22 LINE",
"8 0 LINE",
"136 0 LINE",
"136 22 LINE"
);
}
);
width = 144;
}
);
unicode = 007C;
},
{
glyphname = degree;
lastChange = "2013-05-09 23:26:56 +0200";
layers = (
{
layerId = "940E2F63-624A-4C3D-A909-721782B4CF41";
name = Regular;
paths = (
{
closed = 1;
nodes = (
"83 128 LINE",
"8 128 LINE",
"8 53 LINE",
"83 53 LINE"
);
},
{
closed = 1;
nodes = (
"61 106 LINE",
"61 75 LINE",
"30 75 LINE",
"30 106 LINE"
);
},
{
closed = 1;
nodes = (
"114 22 LINE",
"61 22 LINE",
"61 0 LINE",
"136 0 LINE",
"136 75 LINE",
"114 75 LINE"
);
}
);
width = 144;
}
);
unicode = 00B0;
},
